<?xml version="1.0" encoding="UTF-8"?>
<svg id="Calque_2" data-name="Calque 2" xmlns="http://www.w3.org/2000/svg" viewBox="0 0 240.16 218.31">
  <defs>
    <style>
      .cls-1 {
        fill: #879399;
      }

      .cls-2 {
        fill: #9d9d9c;
      }

      .cls-3, .cls-4 {
        fill: #213040;
      }

      .cls-5, .cls-6, .cls-7 {
        fill: none;
      }

      .cls-5, .cls-6, .cls-7, .cls-4 {
        stroke-miterlimit: 10;
      }

      .cls-5, .cls-7, .cls-4 {
        stroke: #213040;
      }

      .cls-6 {
        stroke: #c6c6c6;
      }

      .cls-6, .cls-7 {
        stroke-width: 6px;
      }

      .cls-8 {
        fill: #b2b2b2;
      }

      .cls-9 {
        fill: #c6c6c6;
      }
    </style>
  </defs>
  <g id="Calque_1-2" data-name="Calque 1">
    <g>
      <rect class="cls-3" x="158.17" y="35" width="35" height="35" rx="5" ry="5"/>
      <rect class="cls-5" x="158.17" y="35" width="35" height="35" rx="5" ry="5"/>
      <path class="cls-3" d="M186.17,42v21h-21v-21h21M188.17,35h-25c-2.76,0-5,2.24-5,5v25c0,2.76,2.24,5,5,5h25c2.76,0,5-2.24,5-5v-25c0-2.76-2.24-5-5-5h0Z"/>
    </g>
    <path class="cls-3" d="M186.17,155.31v21h-21v-21h21M188.17,148.31h-25c-2.76,0-5,2.24-5,5v25c0,2.76,2.24,5,5,5h25c2.76,0,5-2.24,5-5v-25c0-2.76-2.24-5-5-5h0Z"/>
    <g>
      <rect class="cls-3" x="51.05" y="152.31" width="27" height="27" rx="1" ry="1"/>
      <path class="cls-3" d="M74.05,156.31v19h-19v-19h19M77.05,148.31h-25c-2.76,0-5,2.24-5,5v25c0,2.76,2.24,5,5,5h25c2.76,0,5-2.24,5-5v-25c0-2.76-2.24-5-5-5h0Z"/>
    </g>
    <path class="cls-9" d="M75.05,42v21h-21v-21h21M77.05,35h-25c-2.76,0-5,2.24-5,5v25c0,2.76,2.24,5,5,5h25c2.76,0,5-2.24,5-5v-25c0-2.76-2.24-5-5-5h0Z"/>
    <path class="cls-3" d="M130.55,190.31v21h-21v-21h21M132.55,183.31h-25c-2.76,0-5,2.24-5,5v25c0,2.76,2.24,5,5,5h25c2.76,0,5-2.24,5-5v-25c0-2.76-2.24-5-5-5h0Z"/>
    <path class="cls-9" d="M131.49,7v21h-21V7h21M133.49,0h-25c-2.76,0-5,2.24-5,5v25c0,2.76,2.24,5,5,5h25c2.76,0,5-2.24,5-5V5c0-2.76-2.24-5-5-5h0Z"/>
    <g>
      <line class="cls-6" x1="79.45" y1="67.25" x2="102.39" y2="91.48"/>
      <circle class="cls-9" cx="102.29" cy="91.38" r="2.93" transform="translate(-33.41 71.37) rotate(-33.39)"/>
    </g>
    <g>
      <line class="cls-7" x1="137.71" y1="91.49" x2="160.79" y2="67.25"/>
      <path class="cls-3" d="M139.93,93.41c-1.12,1.17-2.97,1.22-4.15.1-1.17-1.12-1.22-2.97-.1-4.15,1.12-1.17,2.97-1.22,4.15-.1,1.17,1.12,1.22,2.97.1,4.15Z"/>
    </g>
    <g>
      <line class="cls-7" x1="137.7" y1="126.97" x2="160.76" y2="150.95"/>
      <path class="cls-3" d="M135.69,129.11c-1.12-1.17-1.09-3.02.08-4.15,1.17-1.12,3.02-1.09,4.15.08,1.12,1.17,1.09,3.02-.08,4.15-1.17,1.12-3.02,1.09-4.15-.08Z"/>
    </g>
    <g>
      <line class="cls-7" x1="79.88" y1="150.7" x2="102.51" y2="126.98"/>
      <path class="cls-3" d="M104.53,129.11c1.12-1.17,1.07-3.03-.1-4.15-1.17-1.12-3.03-1.07-4.15.1-1.12,1.17-1.07,3.03.1,4.15s3.03,1.07,4.15-.1Z"/>
    </g>
    <g>
      <line class="cls-6" x1="120.05" y1="88.87" x2="120.11" y2="34.96"/>
      <path class="cls-9" d="M122.99,88.73c0,1.62-1.32,2.93-2.94,2.93-1.62,0-2.93-1.32-2.93-2.94,0-1.62,1.32-2.93,2.94-2.93,1.62,0,2.93,1.32,2.93,2.94Z"/>
    </g>
    <g>
      <line class="cls-7" x1="120.11" y1="129.44" x2="120.05" y2="183.38"/>
      <path class="cls-3" d="M117.18,129.59c0-1.62,1.32-2.93,2.94-2.93,1.62,0,2.93,1.32,2.93,2.94,0,1.62-1.32,2.93-2.94,2.93-1.62,0-2.93-1.32-2.93-2.94Z"/>
    </g>
    <line class="cls-6" x1="81.63" y1="52.5" x2="120.05" y2="52.5"/>
    <rect id="Centre" class="cls-4" x="104.63" y="93.66" width="31" height="31" rx="5" ry="5"/>
  </g>
  <g id="server1_-_copie" data-name="server1 - copie">
    <path class="cls-2" d="M76.95,111.19H5c-2.76,0-5,2.24-5,5v12.5c0,2.76,2.24,5,5,5h71.95c2.76,0,5-2.24,5-5v-12.5c0-2.76-2.24-5-5-5ZM33.92,126.97c0,.55-.45,1-1,1H7.92c-.55,0-1-.45-1-1v-2.22c0-.55.45-1,1-1h25c.55,0,1,.45,1,1v2.22ZM33.92,119.84c0,.55-.45,1-1,1H7.92c-.55,0-1-.45-1-1v-2.22c0-.55.45-1,1-1h25c.55,0,1,.45,1,1v2.22ZM50.06,117.62c0-.55.45-1,1-1h3c.55,0,1,.45,1,1v3c0,.55-.45,1-1,1h-3c-.55,0-1-.45-1-1v-3ZM55.09,127.57c0,.55-.45,1-1,1h-3c-.55,0-1-.45-1-1v-3c0-.55.45-1,1-1h3c.55,0,1,.45,1,1v3ZM58.99,117.62c0-.55.45-1,1-1h3c.55,0,1,.45,1,1v3c0,.55-.45,1-1,1h-3c-.55,0-1-.45-1-1v-3ZM64.02,127.57c0,.55-.45,1-1,1h-3c-.55,0-1-.45-1-1v-3c0-.55.45-1,1-1h3c.55,0,1,.45,1,1v3ZM67.88,117.62c0-.55.45-1,1-1h3c.55,0,1,.45,1,1v3c0,.55-.45,1-1,1h-3c-.55,0-1-.45-1-1v-3ZM72.9,127.57c0,.55-.45,1-1,1h-3c-.55,0-1-.45-1-1v-3c0-.55.45-1,1-1h3c.55,0,1,.45,1,1v3Z"/>
    <path class="cls-2" d="M235.03,83.07h-71.95c-2.76,0-5,2.24-5,5v12.5c0,2.76,2.24,5,5,5h71.95c2.76,0,5-2.24,5-5v-12.5c0-2.76-2.24-5-5-5ZM172.13,99.45c0,.55-.45,1-1,1h-3c-.55,0-1-.45-1-1v-3c0-.55.45-1,1-1h3c.55,0,1,.45,1,1v3ZM172.16,92.51c0,.55-.45,1-1,1h-3c-.55,0-1-.45-1-1v-3c0-.55.45-1,1-1h3c.55,0,1,.45,1,1v3ZM181.02,99.45c0,.55-.45,1-1,1h-3c-.55,0-1-.45-1-1v-3c0-.55.45-1,1-1h3c.55,0,1,.45,1,1v3ZM181.04,92.51c0,.55-.45,1-1,1h-3c-.55,0-1-.45-1-1v-3c0-.55.45-1,1-1h3c.55,0,1,.45,1,1v3ZM189.95,99.45c0,.55-.45,1-1,1h-3c-.55,0-1-.45-1-1v-3c0-.55.45-1,1-1h3c.55,0,1,.45,1,1v3ZM189.97,92.51c0,.55-.45,1-1,1h-3c-.55,0-1-.45-1-1v-3c0-.55.45-1,1-1h3c.55,0,1,.45,1,1v3ZM233.14,98.85c0,.55-.45,1-1,1h-25c-.55,0-1-.45-1-1v-2.22c0-.55.45-1,1-1h25c.55,0,1,.45,1,1v2.22ZM233.14,91.73c0,.55-.45,1-1,1h-25c-.55,0-1-.45-1-1v-2.22c0-.55.45-1,1-1h25c.55,0,1,.45,1,1v2.22Z"/>
    <path class="cls-1" d="M235.16,111.16h-71.95c-2.76,0-5,2.24-5,5v12.5c0,2.76,2.24,5,5,5h71.95c2.76,0,5-2.24,5-5v-12.5c0-2.76-2.24-5-5-5ZM172.26,127.54c0,.55-.45,1-1,1h-3c-.55,0-1-.45-1-1v-3c0-.55.45-1,1-1h3c.55,0,1,.45,1,1v3ZM172.29,120.6c0,.55-.45,1-1,1h-3c-.55,0-1-.45-1-1v-3c0-.55.45-1,1-1h3c.55,0,1,.45,1,1v3ZM181.15,127.54c0,.55-.45,1-1,1h-3c-.55,0-1-.45-1-1v-3c0-.55.45-1,1-1h3c.55,0,1,.45,1,1v3ZM181.17,120.6c0,.55-.45,1-1,1h-3c-.55,0-1-.45-1-1v-3c0-.55.45-1,1-1h3c.55,0,1,.45,1,1v3ZM190.08,127.54c0,.55-.45,1-1,1h-3c-.55,0-1-.45-1-1v-3c0-.55.45-1,1-1h3c.55,0,1,.45,1,1v3ZM190.1,120.6c0,.55-.45,1-1,1h-3c-.55,0-1-.45-1-1v-3c0-.55.45-1,1-1h3c.55,0,1,.45,1,1v3ZM233.27,126.94c0,.55-.45,1-1,1h-25c-.55,0-1-.45-1-1v-2.22c0-.55.45-1,1-1h25c.55,0,1,.45,1,1v2.22ZM233.27,119.81c0,.55-.45,1-1,1h-25c-.55,0-1-.45-1-1v-2.22c0-.55.45-1,1-1h25c.55,0,1,.45,1,1v2.22Z"/>
  </g>
  <g id="server1">
    <path class="cls-8" d="M78.09,83.07H4.13c-2.21,0-4,1.79-4,4v14.5c0,2.21,1.79,4,4,4h73.95c2.21,0,4-1.79,4-4v-14.5c0-2.21-1.79-4-4-4ZM34.06,98.85c0,.55-.45,1-1,1H8.06c-.55,0-1-.45-1-1v-2.22c0-.55.45-1,1-1h25c.55,0,1,.45,1,1v2.22ZM34.06,91.73c0,.55-.45,1-1,1H8.06c-.55,0-1-.45-1-1v-2.22c0-.55.45-1,1-1h25c.55,0,1,.45,1,1v2.22ZM50.19,89.51c0-.55.45-1,1-1h3c.55,0,1,.45,1,1v3c0,.55-.45,1-1,1h-3c-.55,0-1-.45-1-1v-3ZM55.22,99.45c0,.55-.45,1-1,1h-3c-.55,0-1-.45-1-1v-3c0-.55.45-1,1-1h3c.55,0,1,.45,1,1v3ZM59.12,89.51c0-.55.45-1,1-1h3c.55,0,1,.45,1,1v3c0,.55-.45,1-1,1h-3c-.55,0-1-.45-1-1v-3ZM64.15,99.45c0,.55-.45,1-1,1h-3c-.55,0-1-.45-1-1v-3c0-.55.45-1,1-1h3c.55,0,1,.45,1,1v3ZM68.01,89.51c0-.55.45-1,1-1h3c.55,0,1,.45,1,1v3c0,.55-.45,1-1,1h-3c-.55,0-1-.45-1-1v-3ZM73.03,99.45c0,.55-.45,1-1,1h-3c-.55,0-1-.45-1-1v-3c0-.55.45-1,1-1h3c.55,0,1,.45,1,1v3Z"/>
  </g>
</svg>